<svg width="56" height="56" viewBox="0 0 56 56" fill="none" xmlns="http://www.w3.org/2000/svg">
<circle cx="28" cy="28" r="28" fill="#D9D9D9" fill-opacity="0.37"/>
<path d="M27.9997 19.3483C28.7477 19.3483 29.4917 19.8203 30.0584 20.7643L37.9411 33.903C39.0757 35.7896 38.1997 37.3336 35.9997 37.3336H19.9997C17.7997 37.3336 16.9237 35.7883 18.0584 33.903L25.9411 20.7643C26.5077 19.8203 27.2517 19.3483 27.9997 19.3483ZM27.9997 16.6816C26.2717 16.6816 24.6904 17.6683 23.6544 19.3896L15.7717 32.531C14.7237 34.2763 14.6091 36.1376 15.4584 37.6376C16.3077 39.1376 17.9637 40.0003 19.9997 40.0003H35.9997C38.0357 40.0003 39.6931 39.139 40.5411 37.639C41.3891 36.139 41.2757 34.2776 40.2277 32.5323L32.3451 19.3936C31.3091 17.6683 29.7277 16.6816 27.9997 16.6816Z" fill="#EB5D2C"/>
<path d="M28.0009 35.0663C28.9582 35.0663 29.7342 34.2902 29.7342 33.3329C29.7342 32.3756 28.9582 31.5996 28.0009 31.5996C27.0436 31.5996 26.2676 32.3756 26.2676 33.3329C26.2676 34.2902 27.0436 35.0663 28.0009 35.0663Z" fill="#EB5D2C"/>
<path d="M30.0003 25.333C30.0003 24.2263 29.1056 23.333 28.0003 23.333C27.6729 23.3331 27.3506 23.4135 27.0616 23.5673C26.7726 23.7211 26.5259 23.9435 26.343 24.215C26.1601 24.4866 26.0467 24.7988 26.0127 25.1244C25.9788 25.45 26.0253 25.779 26.1483 26.0823C26.8869 27.917 28.0003 30.6663 28.0003 30.6663L29.8549 26.0823C29.9456 25.8517 30.0003 25.5983 30.0003 25.333Z" fill="#EB5D2C"/>
</svg>
