<svg width="32" height="32" viewBox="0 0 32 32" fill="none" xmlns="http://www.w3.org/2000/svg">
<path d="M15.9997 7.34831C16.7477 7.34831 17.4917 7.82031 18.0584 8.76431L25.9411 21.903C27.0757 23.7896 26.1997 25.3336 23.9997 25.3336H7.99974C5.79974 25.3336 4.92374 23.7883 6.05841 21.903L13.9411 8.76431C14.5077 7.82031 15.2517 7.34831 15.9997 7.34831ZM15.9997 4.68164C14.2717 4.68164 12.6904 5.66831 11.6544 7.38964L3.77174 20.531C2.72374 22.2763 2.60908 24.1376 3.45841 25.6376C4.30774 27.1376 5.96374 28.0003 7.99974 28.0003H23.9997C26.0357 28.0003 27.6931 27.139 28.5411 25.639C29.3891 24.139 29.2757 22.2776 28.2277 20.5323L20.3451 7.39364C19.3091 5.66831 17.7277 4.68164 15.9997 4.68164Z" fill="#EB5D2C"/>
<path d="M16.0009 23.0663C16.9582 23.0663 17.7342 22.2902 17.7342 21.3329C17.7342 20.3756 16.9582 19.5996 16.0009 19.5996C15.0436 19.5996 14.2676 20.3756 14.2676 21.3329C14.2676 22.2902 15.0436 23.0663 16.0009 23.0663Z" fill="#EB5D2C"/>
<path d="M18.0003 13.333C18.0003 12.2263 17.1056 11.333 16.0003 11.333C15.6729 11.3331 15.3506 11.4135 15.0616 11.5673C14.7726 11.7211 14.5259 11.9435 14.343 12.215C14.1601 12.4866 14.0467 12.7988 14.0127 13.1244C13.9788 13.45 14.0253 13.779 14.1483 14.0823C14.8869 15.917 16.0003 18.6663 16.0003 18.6663L17.8549 14.0823C17.9456 13.8517 18.0003 13.5983 18.0003 13.333Z" fill="#EB5D2C"/>
</svg>
