<svg width="29" height="24" viewBox="0 0 29 24" fill="none" xmlns="http://www.w3.org/2000/svg">
<path d="M1 6.5H14" stroke="white" stroke-width="2" stroke-linecap="round"/>
<path d="M3 9.5H16" stroke="white" stroke-width="2" stroke-linecap="round"/>
<path d="M5 12.5H18" stroke="white" stroke-width="2" stroke-linecap="round"/>
<path d="M26.6003 11.22L22.0003 7.52V5C22.0248 4.49494 21.8481 4.00078 21.5088 3.62587C21.1695 3.25095 20.6953 3.02588 20.1903 3H8.79035C8.28891 3.03096 7.81987 3.25823 7.48482 3.63258C7.14978 4.00693 6.97572 4.49822 7.00035 5V15C6.99106 15.3971 7.10024 15.788 7.31395 16.1228C7.52767 16.4576 7.83625 16.7212 8.20035 16.88C8.01618 17.3305 7.9444 17.8191 7.99121 18.3036C8.03802 18.7881 8.202 19.2539 8.46902 19.6609C8.73603 20.0678 9.09805 20.4037 9.52385 20.6395C9.94964 20.8753 10.4264 21.004 10.913 21.0144C11.3997 21.0249 11.8815 20.9167 12.317 20.6994C12.7525 20.482 13.1286 20.1619 13.4128 19.7668C13.697 19.3717 13.8808 18.9133 13.9483 18.4313C14.0158 17.9492 13.965 17.458 13.8003 17H20.1603C19.9959 17.4531 19.943 17.9392 20.0063 18.4171C20.0695 18.895 20.247 19.3506 20.5237 19.7454C20.8003 20.1401 21.1681 20.4624 21.5957 20.6849C22.0233 20.9074 22.4983 21.0235 22.9803 21.0235C23.4624 21.0235 23.9374 20.9074 24.365 20.6849C24.7926 20.4624 25.1604 20.1401 25.437 19.7454C25.7137 19.3506 25.8912 18.895 25.9544 18.4171C26.0177 17.9392 25.9648 17.4531 25.8003 17H26.0003C26.2656 17 26.5199 16.8946 26.7075 16.7071C26.895 16.5196 27.0003 16.2652 27.0003 16V12C26.9973 11.8481 26.9597 11.699 26.8904 11.5638C26.8211 11.4287 26.7219 11.3111 26.6003 11.22ZM25.0003 12.48V15H22.0003V10.08L25.0003 12.48ZM12.0003 18C12.0003 18.1978 11.9417 18.3911 11.8318 18.5556C11.7219 18.72 11.5658 18.8482 11.383 18.9239C11.2003 18.9996 10.9992 19.0194 10.8053 18.9808C10.6113 18.9422 10.4331 18.847 10.2932 18.7071C10.1534 18.5673 10.0581 18.3891 10.0196 18.1951C9.98097 18.0011 10.0008 17.8 10.0765 17.6173C10.1522 17.4346 10.2803 17.2784 10.4448 17.1685C10.6092 17.0586 10.8026 17 11.0003 17C11.2656 17 11.5199 17.1054 11.7075 17.2929C11.895 17.4804 12.0003 17.7348 12.0003 18ZM24.0003 18C24.0003 18.1978 23.9417 18.3911 23.8318 18.5556C23.7219 18.72 23.5658 18.8482 23.383 18.9239C23.2003 18.9996 22.9992 19.0194 22.8053 18.9808C22.6113 18.9422 22.4331 18.847 22.2932 18.7071C22.1534 18.5673 22.0581 18.3891 22.0196 18.1951C21.981 18.0011 22.0008 17.8 22.0765 17.6173C22.1522 17.4346 22.2803 17.2784 22.4448 17.1685C22.6092 17.0586 22.8026 17 23.0003 17C23.2656 17 23.5199 17.1054 23.7075 17.2929C23.895 17.4804 24.0003 17.7348 24.0003 18Z" fill="white"/>
</svg>
