<svg width="18" height="19" viewBox="0 0 18 19" fill="none" xmlns="http://www.w3.org/2000/svg">
<path d="M9 2.95801H16.5M9 6.12467H12.75" stroke="#275C7E" stroke-width="2" stroke-linecap="round" stroke-linejoin="round"/>
<path d="M4.5 3.95898H3C2.58579 3.95898 2.25 4.31343 2.25 4.75065V6.33398C2.25 6.77121 2.58579 7.12565 3 7.12565H4.5C4.91421 7.12565 5.25 6.77121 5.25 6.33398V4.75065C5.25 4.31343 4.91421 3.95898 4.5 3.95898Z" stroke="#275C7E" stroke-width="2" stroke-linecap="round" stroke-linejoin="round"/>
<path d="M9 10.875H16.5M9 14.0417H12.75" stroke="#275C7E" stroke-width="2" stroke-linecap="round" stroke-linejoin="round"/>
<path d="M4.5 11.875H3C2.58579 11.875 2.25 12.2294 2.25 12.6667V14.25C2.25 14.6872 2.58579 15.0417 3 15.0417H4.5C4.91421 15.0417 5.25 14.6872 5.25 14.25V12.6667C5.25 12.2294 4.91421 11.875 4.5 11.875Z" stroke="#275C7E" stroke-width="2" stroke-linecap="round" stroke-linejoin="round"/>
</svg>
