<svg width="18" height="18" viewBox="0 0 18 18" fill="none" xmlns="http://www.w3.org/2000/svg">
<path d="M9.46875 4.375C8.85686 4.375 8.25872 4.55645 7.74995 4.89639C7.24119 5.23634 6.84466 5.71951 6.6105 6.28482C6.37634 6.85013 6.31507 7.47218 6.43445 8.07231C6.55382 8.67244 6.84847 9.22369 7.28114 9.65636C7.71381 10.089 8.26506 10.3837 8.86519 10.5031C9.46532 10.6224 10.0874 10.5612 10.6527 10.327C11.218 10.0928 11.7012 9.69631 12.0411 9.18754C12.3811 8.67878 12.5625 8.08064 12.5625 7.46875C12.5616 6.64852 12.2353 5.86215 11.6553 5.28217C11.0753 4.70218 10.289 4.37593 9.46875 4.375ZM9.46875 8.875C9.19062 8.875 8.91874 8.79252 8.68748 8.638C8.45622 8.48348 8.27598 8.26386 8.16954 8.0069C8.06311 7.74994 8.03526 7.46719 8.08952 7.1944C8.14378 6.92162 8.27771 6.67105 8.47438 6.47438C8.67105 6.27771 8.92162 6.14378 9.1944 6.08952C9.46719 6.03526 9.74994 6.06311 10.0069 6.16954C10.2639 6.27598 10.4835 6.45622 10.638 6.68748C10.7925 6.91874 10.875 7.19062 10.875 7.46875C10.875 7.84171 10.7268 8.1994 10.4631 8.46312C10.1994 8.72684 9.84171 8.875 9.46875 8.875ZM9.46875 1C7.7537 1.00186 6.10943 1.68399 4.89671 2.89671C3.68399 4.10943 3.00186 5.7537 3 7.46875C3 12.9081 8.74031 16.9891 8.985 17.1599C9.1268 17.2591 9.29568 17.3124 9.46875 17.3124C9.64182 17.3124 9.8107 17.2591 9.9525 17.1599C11.0397 16.3587 12.0344 15.4389 12.9183 14.4177C14.8934 12.1495 15.9375 9.74477 15.9375 7.46875C15.9356 5.7537 15.2535 4.10943 14.0408 2.89671C12.8281 1.68399 11.1838 1.00186 9.46875 1ZM11.6695 13.2843C10.9991 14.0544 10.2627 14.7644 9.46875 15.4063C8.67477 14.7644 7.93837 14.0544 7.26797 13.2843C6.09375 11.9245 4.6875 9.81086 4.6875 7.46875C4.6875 6.20068 5.19124 4.98455 6.0879 4.0879C6.98455 3.19124 8.20068 2.6875 9.46875 2.6875C10.7368 2.6875 11.9529 3.19124 12.8496 4.0879C13.7463 4.98455 14.25 6.20068 14.25 7.46875C14.25 9.81086 12.8438 11.9245 11.6695 13.2843Z" fill="#275C7E"/>
</svg>
