<svg width="18" height="18" viewBox="0 0 18 18" fill="none" xmlns="http://www.w3.org/2000/svg">
<path d="M13.7402 1.1332C13.7402 0.832741 13.6177 0.544555 13.3994 0.332039C13.1811 0.119523 12.8849 8.51128e-05 12.5761 4.541e-08C12.4232 -4.20757e-05 12.2718 0.029219 12.1305 0.0861125C11.9892 0.143006 11.8609 0.226418 11.7527 0.331586C11.5343 0.543981 11.4115 0.8321 11.4115 1.13256C11.4115 1.75801 12.5758 3.86981 12.5758 3.86981C12.5758 3.86981 13.7402 1.75866 13.7402 1.1332ZM12.0193 1.1332C12.0167 1.06057 12.0292 0.988182 12.0559 0.920334C12.0827 0.852486 12.1232 0.790572 12.175 0.738281C12.2269 0.68599 12.2891 0.644392 12.3578 0.615966C12.4265 0.587541 12.5004 0.57287 12.5751 0.572827C12.6498 0.572784 12.7238 0.58737 12.7925 0.615716C12.8613 0.644062 12.9235 0.685588 12.9754 0.737819C13.0274 0.79005 13.0679 0.851918 13.0948 0.919735C13.1216 0.987552 13.1341 1.05993 13.1316 1.13256C13.1267 1.27285 13.066 1.40581 12.9623 1.5034C12.8587 1.60099 12.7201 1.65558 12.5758 1.65567C12.4315 1.65575 12.2929 1.60132 12.189 1.50384C12.0852 1.40637 12.0244 1.27348 12.0193 1.1332ZM15.1201 10.6017C14.7509 10.6017 14.3968 10.6318 14.0718 10.6806L5.77034 7.70274C5.9022 7.58727 5.97604 7.45897 5.97604 7.32426C5.97435 7.25324 5.9544 7.18377 5.91802 7.12219L11.4629 5.68652C11.7662 5.77441 12.1374 5.82765 12.5481 5.82765C13.5503 5.82765 14.3612 5.51717 14.3612 5.13356C14.3612 4.74866 13.5503 4.43882 12.5481 4.43882C11.5459 4.43882 10.735 4.74994 10.735 5.13356C10.735 5.17846 10.7482 5.22144 10.7706 5.26314L4.97652 6.56345C4.49072 6.4301 3.98791 6.36466 3.48317 6.36907C2.10718 6.36907 0.990953 6.79695 0.990953 7.3249C0.990953 7.85285 2.10718 8.28072 3.48317 8.28072C3.86162 8.28072 4.21501 8.24544 4.53676 8.18771L12.442 11.3092C12.3167 11.4324 12.2402 11.5658 12.2402 11.7089C12.2402 11.8308 12.3035 11.9424 12.3958 12.0508L4.18468 15.0408C4.08051 15.0376 3.97634 15.0344 3.87019 15.0344C1.734 15.0344 0 15.699 0 16.5162C0 17.3354 1.734 18 3.87019 18C6.00637 18 7.74038 17.3367 7.74038 16.5169C7.74038 16.3757 7.68565 16.2397 7.58873 16.1108L14.3573 12.7661C14.6012 12.7917 14.8537 12.8077 15.1188 12.8077C16.7097 12.8077 18 12.3138 18 11.7025C18 11.0969 16.7097 10.6017 15.1188 10.6017H15.1201Z" fill="#275C7E"/>
</svg>
