<svg width="56" height="56" viewBox="0 0 56 56" fill="none" xmlns="http://www.w3.org/2000/svg">
<circle cx="28" cy="28" r="28" fill="#D9D9D9" fill-opacity="0.37"/>
<path d="M27.0186 36.8C27.2248 37.1187 27.5873 37.3312 27.9998 37.3312C28.4123 37.3312 28.7748 37.1187 28.9873 36.8L35.8748 26.1625C36.7998 24.7313 37.3373 23.1562 37.3373 21.3313C37.3311 16.0563 33.1873 12 27.9998 12C22.8123 12 18.6686 16.0563 18.6686 21.3313C18.6686 23.1562 19.2061 24.7313 20.1311 26.1625L27.0186 36.8ZM27.9998 16C30.9436 16 33.3311 18.3875 33.3311 21.3313C33.3311 24.275 30.9436 26.6625 27.9998 26.6625C25.0561 26.6625 22.6686 24.275 22.6686 21.3313C22.6686 18.3875 25.0561 16 27.9998 16ZM34.8373 32.2188L27.9998 41.3312L21.1623 32.2188C18.8248 33.4438 17.3311 35.275 17.3311 37.3312C17.3311 41.0125 22.1061 44 27.9998 44C33.8936 44 38.6686 41.0125 38.6686 37.3312C38.6686 35.275 37.1748 33.4438 34.8373 32.2188Z" fill="#EB5D2C"/>
</svg>
