<svg width="16" height="16" viewBox="0 0 16 16" fill="none" xmlns="http://www.w3.org/2000/svg">
<path d="M8.08828 10.0957L5.05078 10.6732L5.55703 7.42233L11.3587 1.31631C11.4528 1.21608 11.5648 1.13653 11.6881 1.08224C11.8115 1.02795 11.9439 1 12.0775 1C12.2112 1 12.3435 1.02795 12.4669 1.08224C12.5903 1.13653 12.7023 1.21608 12.7964 1.31631L13.8697 2.44983C13.9646 2.54924 14.0399 2.66751 14.0913 2.79782C14.1427 2.92813 14.1692 3.06791 14.1692 3.20907C14.1692 3.35024 14.1427 3.49001 14.0913 3.62032C14.0399 3.75063 13.9646 3.86891 13.8697 3.96832L8.08828 10.0957Z" stroke="#275C7E" stroke-width="2" stroke-linecap="round" stroke-linejoin="round"/>
<path d="M12.6438 10.6305V13.8386C12.6438 14.1222 12.5371 14.3942 12.3472 14.5947C12.1573 14.7953 11.8998 14.9079 11.6313 14.9079H2.0125C1.74397 14.9079 1.48643 14.7953 1.29655 14.5947C1.10667 14.3942 1 14.1222 1 13.8386V3.67971C1 3.3961 1.10667 3.1241 1.29655 2.92356C1.48643 2.72302 1.74397 2.61035 2.0125 2.61035H5.05" stroke="#275C7E" stroke-width="2" stroke-linecap="round" stroke-linejoin="round"/>
</svg>
