<svg width="532" height="532" viewBox="0 0 532 532" fill="none" xmlns="http://www.w3.org/2000/svg">
<g clip-path="url(#clip0_268_127)">
<path d="M270.76 347.283C318.449 347.283 357.109 308.623 357.109 260.934C357.109 213.245 318.449 174.585 270.76 174.585C223.071 174.585 184.411 213.245 184.411 260.934C184.411 308.623 223.071 347.283 270.76 347.283Z" fill="#FFB6B6"/>
<path d="M221.189 360.052L217.288 320.618L295.189 306.052L341.189 418.052L261.189 510.052L204.189 398.052L221.189 360.052Z" fill="#FFB6B6"/>
<path d="M216.037 340.357L233.069 344.205C233.069 344.205 219.68 301.751 224.225 297.698C228.769 293.644 239.905 300.031 239.905 300.031L251.607 313.151L265.861 298.638C265.861 298.638 281.336 279.396 287.395 273.992C293.454 268.588 283.721 248.528 283.721 248.528C283.721 248.528 373.613 224.289 340.164 180.689C340.164 180.689 320.553 146.504 314.167 157.64C307.781 168.776 300.165 151.09 300.165 151.09L276.912 155.512C276.912 155.512 231.017 128.451 187.458 186.341C143.899 244.231 216.037 340.357 216.037 340.357Z" fill="#2F2E41"/>
<path d="M433.16 472.95C385.97 511.21 327.59 532 266 532C209.76 532 156.19 514.66 111.38 482.52C111.46 481.68 111.54 480.85 111.61 480.02C112.8 467.02 113.86 454.38 114.56 443.9C117.27 403.21 212.2 376.09 212.2 376.09C212.2 376.09 212.63 376.52 213.49 377.27C218.73 381.87 240 398.55 277.3 403.21C310.56 407.37 321.51 387.64 324.82 378.19C325.82 375.31 326.12 373.38 326.12 373.38L423.76 419.49C430.13 428.59 432.62 448.19 433.11 470.22C433.13 471.13 433.15 472.03 433.16 472.95Z" fill="#275C7E"/>
<path d="M454.09 77.91C403.85 27.67 337.05 0 266 0C194.95 0 128.15 27.67 77.91 77.91C27.67 128.15 0 194.95 0 266C0 330.85 23.05 392.16 65.29 440.57C69.32 445.2 73.53 449.71 77.91 454.09C78.94 455.12 79.98 456.15 81.03 457.15C83.83 459.86 86.6801 462.51 89.58 465.08C91.34 466.65 93.1201 468.19 94.9201 469.7C96.33 470.89 97.7401 472.06 99.1701 473.21C99.2 473.24 99.2201 473.26 99.25 473.28C103.22 476.48 107.26 479.56 111.38 482.52C156.19 514.66 209.76 532 266 532C327.59 532 385.97 511.21 433.16 472.95C437.01 469.83 440.78 466.59 444.48 463.24C447.75 460.28 450.95 457.23 454.09 454.09C455.08 453.1 456.07 452.1 457.04 451.09C459.74 448.31 462.36 445.48 464.92 442.61C508.29 393.89 532 331.77 532 266C532 194.95 504.33 128.15 454.09 77.91ZM464.27 440.12C461.77 442.96 459.21 445.76 456.59 448.49C452.51 452.74 448.3 456.86 443.95 460.83C442.3 462.35 440.63 463.83 438.94 465.3C437.02 466.97 435.08 468.61 433.11 470.22C417.58 482.97 400.57 493.97 382.38 502.93C375.19 506.48 367.82 509.71 360.28 512.6C330.99 523.84 299.2 530 266 530C233.96 530 203.24 524.26 174.81 513.76C163.14 509.46 151.86 504.35 141.03 498.5C139.44 497.64 137.86 496.77 136.29 495.88C128.03 491.2 120.04 486.09 112.37 480.57C112.12 480.39 111.86 480.2 111.61 480.02C106.15 476.08 100.84 471.93 95.71 467.57C93.83 465.98 91.97 464.37 90.14 462.72C87.16 460.07 84.2401 457.34 81.39 454.54C75.9901 449.25 70.83 443.74 65.9 438.01C26.09 391.77 2 331.65 2 266C2 120.43 120.43 2 266 2C411.57 2 530 120.43 530 266C530 332.66 505.17 393.62 464.27 440.12Z" fill="#275C7E"/>
</g>
<defs>
<clipPath id="clip0_268_127">
<rect width="532" height="532" fill="white"/>
</clipPath>
</defs>
</svg>
