<svg width="56" height="56" viewBox="0 0 56 56" fill="none" xmlns="http://www.w3.org/2000/svg">
<circle cx="28" cy="28" r="28" fill="#D9D9D9" fill-opacity="0.37"/>
<path d="M17.7143 12C16.1988 12 14.7453 12.602 13.6737 13.6737C12.602 14.7453 12 16.1988 12 17.7143V33.7143C12 35.2298 12.602 36.6833 13.6737 37.7549C14.7453 38.8265 16.1988 39.4286 17.7143 39.4286H21.76L22.9029 37.1429H17.7143C16.805 37.1429 15.9329 36.7816 15.2899 36.1387C14.6469 35.4957 14.2857 34.6236 14.2857 33.7143V17.7143C14.2857 16.805 14.6469 15.9329 15.2899 15.2899C15.9329 14.6469 16.805 14.2857 17.7143 14.2857H33.7143C34.6236 14.2857 35.4957 14.6469 36.1387 15.2899C36.7816 15.9329 37.1429 16.805 37.1429 17.7143V22.672C37.3989 22.9646 37.6229 23.296 37.8126 23.6709L39.4286 26.9051V17.7143C39.4286 16.1988 38.8265 14.7453 37.7549 13.6737C36.6833 12.602 35.2298 12 33.7143 12H17.7143ZM23.4286 33.7143H24.6171L25.7577 31.4286H23.4286C23.1255 31.4286 22.8348 31.549 22.6204 31.7633C22.4061 31.9776 22.2857 32.2683 22.2857 32.5714C22.2857 32.8745 22.4061 33.1652 22.6204 33.3796C22.8348 33.5939 23.1255 33.7143 23.4286 33.7143ZM28.0389 26.8571L29.1817 24.5714H23.4286C23.1255 24.5714 22.8348 24.6918 22.6204 24.9062C22.4061 25.1205 22.2857 25.4112 22.2857 25.7143C22.2857 26.0174 22.4061 26.3081 22.6204 26.5224C22.8348 26.7367 23.1255 26.8571 23.4286 26.8571H28.0389ZM18.2857 20.5714C18.7404 20.5714 19.1764 20.3908 19.4979 20.0693C19.8194 19.7478 20 19.3118 20 18.8571C20 18.4025 19.8194 17.9665 19.4979 17.645C19.1764 17.3235 18.7404 17.1429 18.2857 17.1429C17.8311 17.1429 17.395 17.3235 17.0735 17.645C16.752 17.9665 16.5714 18.4025 16.5714 18.8571C16.5714 19.3118 16.752 19.7478 17.0735 20.0693C17.395 20.3908 17.8311 20.5714 18.2857 20.5714ZM18.2857 27.4286C18.7404 27.4286 19.1764 27.248 19.4979 26.9265C19.8194 26.605 20 26.1689 20 25.7143C20 25.2596 19.8194 24.8236 19.4979 24.5021C19.1764 24.1806 18.7404 24 18.2857 24C17.8311 24 17.395 24.1806 17.0735 24.5021C16.752 24.8236 16.5714 25.2596 16.5714 25.7143C16.5714 26.1689 16.752 26.605 17.0735 26.9265C17.395 27.248 17.8311 27.4286 18.2857 27.4286ZM18.2857 34.2857C18.7404 34.2857 19.1764 34.1051 19.4979 33.7836C19.8194 33.4621 20 33.0261 20 32.5714C20 32.1168 19.8194 31.6807 19.4979 31.3592C19.1764 31.0378 18.7404 30.8571 18.2857 30.8571C17.8311 30.8571 17.395 31.0378 17.0735 31.3592C16.752 31.6807 16.5714 32.1168 16.5714 32.5714C16.5714 33.0261 16.752 33.4621 17.0735 33.7836C17.395 34.1051 17.8311 34.2857 18.2857 34.2857ZM23.4286 17.7143C23.1255 17.7143 22.8348 17.8347 22.6204 18.049C22.4061 18.2633 22.2857 18.554 22.2857 18.8571C22.2857 19.1602 22.4061 19.4509 22.6204 19.6653C22.8348 19.8796 23.1255 20 23.4286 20H33.7143C34.0174 20 34.3081 19.8796 34.5224 19.6653C34.7367 19.4509 34.8571 19.1602 34.8571 18.8571C34.8571 18.554 34.7367 18.2633 34.5224 18.049C34.3081 17.8347 34.0174 17.7143 33.7143 17.7143H23.4286ZM31.664 24.6949C31.8536 24.3145 32.1454 23.9945 32.5068 23.7709C32.8682 23.5472 33.2847 23.4287 33.7097 23.4287C34.1347 23.4287 34.5513 23.5472 34.9126 23.7709C35.274 23.9945 35.5659 24.3145 35.7554 24.6949L43.7554 40.6903C43.9301 41.0389 44.0127 41.4265 43.9954 41.8161C43.978 42.2057 43.8612 42.5843 43.6562 42.916C43.4512 43.2478 43.1647 43.5215 42.824 43.7112C42.4833 43.901 42.0997 44.0004 41.7097 44H25.7189C25.3289 44.0004 24.9453 43.901 24.6046 43.7112C24.2639 43.5215 23.9774 43.2478 23.7724 42.916C23.5673 42.5843 23.4506 42.2057 23.4332 41.8161C23.4158 41.4265 23.4984 41.0389 23.6731 40.6903L31.664 24.6949ZM34.8526 29.1314C34.8526 28.8283 34.7322 28.5376 34.5178 28.3233C34.3035 28.109 34.0128 27.9886 33.7097 27.9886C33.4066 27.9886 33.1159 28.109 32.9016 28.3233C32.6873 28.5376 32.5669 28.8283 32.5669 29.1314V35.9931C32.5669 36.2962 32.6873 36.5869 32.9016 36.8013C33.1159 37.0156 33.4066 37.136 33.7097 37.136C34.0128 37.136 34.3035 37.0156 34.5178 36.8013C34.7322 36.5869 34.8526 36.2962 34.8526 35.9931V29.1314ZM33.7097 41.712C34.0128 41.712 34.3035 41.5916 34.5178 41.3773C34.7322 41.1629 34.8526 40.8722 34.8526 40.5691C34.8526 40.266 34.7322 39.9753 34.5178 39.761C34.3035 39.5467 34.0128 39.4263 33.7097 39.4263C33.4066 39.4263 33.1159 39.5467 32.9016 39.761C32.6873 39.9753 32.5669 40.266 32.5669 40.5691C32.5669 40.8722 32.6873 41.1629 32.9016 41.3773C33.1159 41.5916 33.4066 41.712 33.7097 41.712Z" fill="#EB5D2C"/>
</svg>
