<svg width="56" height="56" viewBox="0 0 56 56" fill="none" xmlns="http://www.w3.org/2000/svg">
<circle cx="28" cy="28" r="28" fill="#D9D9D9" fill-opacity="0.37"/>
<path d="M30.4998 39.8759C30.4998 40.3704 30.3532 40.8537 30.0785 41.2648C29.8038 41.676 29.4133 41.9964 28.9565 42.1856C28.4997 42.3748 27.997 42.4243 27.5121 42.3279C27.0271 42.2314 26.5817 41.9933 26.232 41.6437C25.8824 41.294 25.6443 40.8486 25.5478 40.3636C25.4514 39.8787 25.5009 39.376 25.6901 38.9192C25.8793 38.4624 26.1997 38.0719 26.6109 37.7972C27.022 37.5225 27.5053 37.3759 27.9998 37.3759C28.6628 37.3759 29.2987 37.6393 29.7676 38.1081C30.2364 38.577 30.4998 39.2129 30.4998 39.8759ZM41.906 20.5009L44.331 18.0775C44.6833 17.7252 44.8812 17.2475 44.8812 16.7493C44.8812 16.2512 44.6833 15.7735 44.331 15.4212C43.9788 15.069 43.5011 14.8711 43.0029 14.8711C42.5048 14.8711 42.027 15.069 41.6748 15.4212L39.2498 17.8447L36.8264 15.4243C36.4741 15.0721 35.9964 14.8742 35.4982 14.8742C35.0001 14.8742 34.5224 15.0721 34.1701 15.4243C33.8179 15.7766 33.62 16.2543 33.62 16.7525C33.62 17.2506 33.8179 17.7284 34.1701 18.0806L36.5935 20.5009L34.1732 22.9243C33.821 23.2766 33.6231 23.7543 33.6231 24.2525C33.6231 24.7506 33.821 25.2284 34.1732 25.5806C34.5255 25.9328 35.0032 26.1307 35.5014 26.1307C35.9995 26.1307 36.4772 25.9328 36.8295 25.5806L39.2498 23.1572L41.6732 25.5822C41.8476 25.7566 42.0547 25.8949 42.2826 25.9893C42.5105 26.0837 42.7547 26.1323 43.0014 26.1323C43.248 26.1323 43.4923 26.0837 43.7201 25.9893C43.948 25.8949 44.1551 25.7566 44.3295 25.5822C44.5039 25.4077 44.6422 25.2007 44.7366 24.9728C44.831 24.7449 44.8796 24.5007 44.8796 24.254C44.8796 24.0074 44.831 23.7631 44.7366 23.5353C44.6422 23.3074 44.5039 23.1003 44.3295 22.9259L41.906 20.5009ZM35.3592 32.2665C33.2223 30.7119 30.6478 29.8745 28.0053 29.8745C25.3627 29.8745 22.7882 30.7119 20.6514 32.2665C20.2494 32.5593 19.9802 32.9998 19.903 33.491C19.8258 33.9823 19.9469 34.4841 20.2396 34.8861C20.5324 35.288 20.9729 35.5572 21.4641 35.6344C21.9554 35.7117 22.4572 35.5906 22.8592 35.2978C24.3546 34.2103 26.1562 33.6245 28.0053 33.6245C29.8543 33.6245 31.6559 34.2103 33.1514 35.2978C33.5533 35.5906 34.0551 35.7117 34.5464 35.6344C35.0377 35.5572 35.4781 35.288 35.7709 34.8861C36.0637 34.4841 36.1848 33.9823 36.1076 33.491C36.0303 32.9998 35.7611 32.5593 35.3592 32.2665ZM28.5795 18.6259H28.6264C29.1236 18.6317 29.6029 18.4397 29.9586 18.0922C30.3143 17.7447 30.5174 17.2701 30.5232 16.7728C30.529 16.2755 30.3371 15.7963 29.9895 15.4406C29.642 15.0848 29.1674 14.8817 28.6701 14.8759H27.9998C21.6412 14.8792 15.4796 17.0825 10.5607 21.1118C10.3704 21.2681 10.2127 21.4603 10.0967 21.6775C9.98068 21.8947 9.90856 22.1326 9.88448 22.3777C9.86039 22.6227 9.88481 22.8701 9.95634 23.1057C10.0279 23.3414 10.1451 23.5606 10.3014 23.7509C10.4576 23.9412 10.6498 24.0989 10.867 24.2149C11.0842 24.331 11.3221 24.4031 11.5672 24.4272C11.8122 24.4512 12.0596 24.4268 12.2953 24.3553C12.5309 24.2838 12.7501 24.1665 12.9404 24.0103C17.1883 20.5312 22.509 18.6289 27.9998 18.6259H28.5795ZM28.5607 26.1259C29.058 26.1429 29.5417 25.9616 29.9053 25.622C30.269 25.2824 30.4828 24.8123 30.4998 24.315C30.5168 23.8177 30.3355 23.334 29.9959 22.9704C29.6563 22.6067 29.1861 22.3929 28.6889 22.3759H27.9998C23.4906 22.3592 19.1109 23.8829 15.5857 26.6947C15.2057 27.0066 14.9634 27.4553 14.911 27.9441C14.8586 28.433 15.0003 28.9228 15.3056 29.3082C15.6109 29.6936 16.0553 29.9436 16.5431 30.0045C17.031 30.0654 17.5232 29.9323 17.9139 29.6337C20.778 27.3494 24.3363 26.1118 27.9998 26.1259C28.1873 26.1259 28.3764 26.1259 28.5607 26.1353V26.1259Z" fill="#EB5D2C"/>
</svg>
